<svg width="12" height="13" viewBox="0 0 12 13" fill="none" xmlns="http://www.w3.org/2000/svg">
<path d="M5.39539 0.902277C4.81862 0.958823 4.45899 1.0312 3.99983 1.18275C2.15643 1.79118 0.763135 3.31793 0.308505 5.23145C0.199936 5.68382 0.170532 5.95071 0.170532 6.49808C0.170532 7.1314 0.222555 7.51365 0.387669 8.07685C0.444215 8.27589 0.600283 8.70564 0.622901 8.73278C0.631948 8.74183 0.912417 8.62421 0.935036 8.60159C0.946345 8.59255 0.92825 8.52469 0.898846 8.45231C0.821943 8.27136 0.708851 7.90947 0.656829 7.68781C0.555046 7.23996 0.532427 7.02509 0.534689 6.47546C0.536951 6.00726 0.543737 5.90548 0.595759 5.61596C0.837776 4.26112 1.54347 3.10984 2.63594 2.29105C4.39792 0.970132 6.83166 0.904539 8.66602 2.13046C8.96458 2.3295 9.18398 2.50366 9.16136 2.52176C9.15458 2.52854 9.05053 2.60092 8.92839 2.68461C8.68638 2.85199 8.6434 2.91079 8.68864 3.01936C8.70221 3.05555 8.73161 3.094 8.75197 3.10305C8.77233 3.11436 9.07089 3.21162 9.41921 3.31793C10.1 3.53054 10.1792 3.54185 10.2493 3.44459C10.2855 3.39483 10.2923 3.3134 10.3059 2.7027L10.3217 2.01737L10.2697 1.96308C10.1747 1.8613 10.0978 1.88392 9.78563 2.09879C9.63183 2.2051 9.49838 2.29105 9.49159 2.29105C9.48254 2.29105 9.3966 2.22546 9.29934 2.14403C8.5484 1.52202 7.54188 1.08549 6.53762 0.945252C6.28656 0.911325 5.58086 0.884182 5.39539 0.902277ZM9.93718 2.86782L9.91908 3.09627L9.59111 2.99222L9.26541 2.88818L9.60242 2.65973L9.9417 2.43128L9.94848 2.53759C9.95075 2.59414 9.94622 2.74342 9.93718 2.86782Z" fill="#FFBB00" stroke="#FFBB00" stroke-width="0.279883"/>
<path d="M10.4664 3.78612L10.3149 3.8766L10.4054 4.03945C10.5863 4.36968 10.7876 4.908 10.8803 5.30834C10.9799 5.74262 11.0047 5.97333 11.0047 6.49807C11.0047 7.04318 10.9776 7.27615 10.8645 7.73983C10.3398 9.91346 8.47826 11.5148 6.24356 11.7207C4.7236 11.8609 3.14709 11.3 2.10891 10.2459L1.94379 10.0786L2.15867 9.93608C2.4414 9.75061 2.4889 9.70537 2.4889 9.62168C2.4889 9.48371 2.43461 9.45657 1.7538 9.24848C1.40547 9.14217 1.08655 9.05396 1.04584 9.05396C0.876202 9.05396 0.864893 9.11277 0.855846 9.97679L0.84906 10.5739L0.903344 10.6169C1.00287 10.6983 1.07751 10.6734 1.36476 10.4767L1.63166 10.2934L1.85106 10.5061C2.30116 10.9403 2.73091 11.2457 3.28054 11.5171C4.8661 12.302 6.70271 12.2997 8.28374 11.5058C9.92584 10.6825 11.0432 9.12407 11.3259 7.2671C11.3734 6.94366 11.3802 6.1113 11.3372 5.80821C11.2671 5.31739 11.1495 4.85824 11.0025 4.48051C10.9233 4.27694 10.6677 3.74541 10.6361 3.71148C10.627 3.70243 10.5501 3.73636 10.4664 3.78612ZM1.62035 9.58775C1.83749 9.65561 1.8782 9.67597 1.85106 9.69858C1.83522 9.71668 1.68594 9.82072 1.52309 9.93382L1.22226 10.1374V9.80715V9.47692L1.29012 9.49276C1.32857 9.49954 1.47785 9.54252 1.62035 9.58775Z" fill="#FFBB00" stroke="#FFBB00" stroke-width="0.279883"/>
<path d="M3.20143 4.53932C2.95942 4.61623 2.78073 4.77003 2.67669 4.99395C2.6224 5.10931 2.61335 5.15907 2.61335 5.32192C2.61335 5.49608 2.62014 5.53001 2.68799 5.66798C2.73097 5.75393 2.76037 5.82405 2.75585 5.82858C2.75359 5.83084 2.70383 5.85346 2.64728 5.87607C2.498 5.94167 2.31931 6.1294 2.23336 6.31035L2.16099 6.46415L2.1542 7.1133L2.14741 7.76471H2.32836H2.51157V7.18568C2.51157 6.79664 2.52062 6.57498 2.53871 6.51165C2.5749 6.38725 2.76264 6.19952 2.88704 6.16333C3.0137 6.12714 3.81892 6.12714 3.94558 6.16333C4.06998 6.19952 4.25771 6.38725 4.2939 6.51165C4.34593 6.68581 4.35724 6.67903 4.01796 6.67903C3.76237 6.67903 3.70809 6.68581 3.66737 6.71748C3.63345 6.74688 3.58595 6.88033 3.49321 7.19925C3.42536 7.44127 3.34845 7.70817 3.32357 7.79186L3.27834 7.94566H2.53419H1.78778V8.12661V8.30756H5.76863H9.74947V8.12661V7.94566H9.4215C9.24056 7.94566 9.09354 7.93888 9.09354 7.92757C9.09354 7.91852 9.15913 7.68103 9.24056 7.39829C9.32198 7.11556 9.38758 6.86224 9.38758 6.83736C9.38758 6.81022 9.3627 6.76498 9.33103 6.73557C9.27675 6.67903 9.26996 6.67903 8.88319 6.67903H8.48736L8.47379 6.55689C8.43986 6.28999 8.21368 5.97786 7.98523 5.87607C7.92869 5.85346 7.87893 5.83084 7.87667 5.82858C7.87214 5.82405 7.90155 5.75393 7.94452 5.66798C8.01238 5.53001 8.01916 5.49608 8.01916 5.32192C8.01916 5.15907 8.01011 5.10931 7.95583 4.99395C7.65727 4.35385 6.77515 4.35385 6.47658 4.99395C6.4223 5.10931 6.41325 5.15907 6.41325 5.32192C6.41325 5.49608 6.42004 5.53001 6.48789 5.66798C6.53087 5.75393 6.56027 5.82405 6.55575 5.82858C6.55349 5.83084 6.50373 5.85346 6.44718 5.87607C6.2979 5.94167 6.11921 6.1294 6.03326 6.31035L5.96088 6.46415L5.9541 7.1133L5.94731 7.76471H6.12826H6.31147V7.18568C6.31147 6.79664 6.32052 6.57498 6.33861 6.51165C6.3748 6.38725 6.56253 6.19952 6.68694 6.16333C6.8136 6.12714 7.61882 6.12714 7.74548 6.16333C7.86988 6.19952 8.05761 6.38725 8.0938 6.51165C8.14582 6.68581 8.15713 6.67903 7.81786 6.67903C7.56227 6.67903 7.50798 6.68581 7.46727 6.71748C7.43334 6.74688 7.38585 6.88033 7.29311 7.19925C7.22525 7.44127 7.14835 7.70817 7.12347 7.79186L7.07823 7.94566H6.18707C5.69625 7.94566 5.29364 7.93888 5.29364 7.92757C5.29364 7.91852 5.35923 7.68103 5.44066 7.39829C5.52209 7.11556 5.58768 6.86224 5.58768 6.83736C5.58768 6.81022 5.5628 6.76498 5.53113 6.73557C5.47685 6.67903 5.47006 6.67903 5.08329 6.67903H4.68746L4.67389 6.55689C4.63997 6.28999 4.41378 5.97786 4.18534 5.87607C4.12879 5.85346 4.07903 5.83084 4.07677 5.82858C4.07224 5.82405 4.10165 5.75393 4.14462 5.66798C4.21248 5.53001 4.21926 5.49608 4.21926 5.32192C4.21926 5.15907 4.21022 5.10931 4.15593 4.99395C4.08808 4.84693 3.97272 4.71349 3.8438 4.63206C3.66737 4.51897 3.39369 4.47825 3.20143 4.53932ZM3.67416 4.95324C3.79856 5.04145 3.85737 5.16359 3.85737 5.33323C3.85737 5.58882 3.68321 5.76298 3.42988 5.76298C3.1087 5.76298 2.90287 5.49608 2.9843 5.19074C3.01596 5.07538 3.15393 4.9261 3.2625 4.89443C3.38917 4.85598 3.57238 4.88086 3.67416 4.95324ZM7.47406 4.95324C7.59846 5.04145 7.65727 5.16359 7.65727 5.33323C7.65727 5.58882 7.4831 5.76298 7.22978 5.76298C6.9086 5.76298 6.70277 5.49608 6.78419 5.19074C6.81586 5.07538 6.95383 4.9261 7.0624 4.89443C7.18906 4.85598 7.37227 4.88086 7.47406 4.95324ZM5.15793 7.05902C5.15793 7.07485 5.05615 7.44127 4.9521 7.79186L4.90686 7.94566H4.28712C3.94558 7.94566 3.66511 7.93661 3.66511 7.92757C3.66511 7.91173 3.76689 7.54531 3.87094 7.19247L3.91618 7.04092H4.53592C4.87746 7.04092 5.15793 7.04997 5.15793 7.05902ZM8.95783 7.05902C8.95783 7.07485 8.85604 7.44127 8.752 7.79186L8.70676 7.94566H8.08702C7.74548 7.94566 7.46501 7.93661 7.46501 7.92757C7.46501 7.91173 7.56679 7.54531 7.67084 7.19247L7.71607 7.04092H8.33582C8.67736 7.04092 8.95783 7.04997 8.95783 7.05902Z" fill="#FFBB00" stroke="#FFBB00" stroke-width="0.279883"/>
</svg>
